<mxfile host="app.diagrams.net" modified="2024-03-10T02:33:27.209Z" agent="Mozilla/5.0 (Windows NT 10.0; Win64; x64) AppleWebKit/537.36 (KHTML, like Gecko) Chrome/122.0.0.0 Safari/537.36" version="21.2.8" etag="fwknNyL479js5abQiUDr" type="github">
  <diagram name="Page-1" id="BjRSQdIwhNWMmY6M0Qe9">
    <mxGraphModel>
      <root>
        <mxCell id="0" />
        <mxCell id="1" parent="0" />
      </root>
    </mxGraphModel>
  </diagram>
</mxfile>
